<svg xmlns="http://www.w3.org/2000/svg" viewBox="0 0 64 64" role="img" aria-label="DigitalOcean">
  <defs>
    <linearGradient id="doBlue" x1="0%" y1="0%" x2="100%" y2="100%">
      <stop offset="0%" stop-color="#2da0ff"/>
      <stop offset="100%" stop-color="#0f6cbd"/>
    </linearGradient>
  </defs>
  <circle cx="32" cy="32" r="22" fill="none" stroke="url(#doBlue)" stroke-width="8"/>
  <path d="M44 18c-5 0-9 2-12 5-3 3-4 7-4 11 0 2 .2 4 .8 5.8l8-2.1c-.2-.9-.3-1.8-.3-2.8 0-2.2.6-4.1 1.8-5.4 1.4-1.7 3.5-2.7 6.1-2.7 1 0 2 .1 2.9.4l2.4-8.1c-1.7-.8-3.6-1.2-5.7-1.2z" fill="#0f6cbd"/>
</svg>
