<svg xmlns="http://www.w3.org/2000/svg" viewBox="0 0 640 420" role="img" aria-label="Ilustração de criação de servidor">
  <defs>
    <linearGradient id="bg" x1="0" y1="0" x2="1" y2="1">
      <stop offset="0%" stop-color="#f8fbff"/>
      <stop offset="100%" stop-color="#eaf3fd"/>
    </linearGradient>
    <linearGradient id="blue" x1="0" y1="0" x2="1" y2="1">
      <stop offset="0%" stop-color="#0f6cbd"/>
      <stop offset="100%" stop-color="#0b4f8a"/>
    </linearGradient>
    <linearGradient id="teal" x1="0" y1="0" x2="1" y2="1">
      <stop offset="0%" stop-color="#14b8a6"/>
      <stop offset="100%" stop-color="#0f766e"/>
    </linearGradient>
    <filter id="shadow" x="-20%" y="-20%" width="140%" height="140%">
      <feDropShadow dx="0" dy="12" stdDeviation="18" flood-color="#0f172a" flood-opacity="0.12"/>
    </filter>
  </defs>

  <rect width="640" height="420" rx="28" fill="url(#bg)"/>
  <circle cx="540" cy="82" r="44" fill="#dbeafe"/>
  <circle cx="96" cy="320" r="58" fill="#e0f2fe"/>
  <circle cx="470" cy="320" r="74" fill="#ecfeff"/>

  <g filter="url(#shadow)">
    <rect x="182" y="92" width="276" height="88" rx="18" fill="#ffffff" stroke="#d9e6f4"/>
    <rect x="182" y="196" width="276" height="88" rx="18" fill="#ffffff" stroke="#d9e6f4"/>
    <rect x="182" y="300" width="276" height="88" rx="18" fill="#ffffff" stroke="#d9e6f4"/>
  </g>

  <rect x="206" y="116" width="56" height="8" rx="4" fill="#0f6cbd"/>
  <rect x="206" y="132" width="126" height="10" rx="5" fill="#c7d7ea"/>
  <rect x="206" y="148" width="162" height="10" rx="5" fill="#d9e5f2"/>
  <rect x="390" y="116" width="40" height="40" rx="12" fill="#eef6ff"/>
  <path d="M406 130h8l6 6v8l-6 6h-8l-6-6v-8l6-6z" fill="url(#blue)"/>

  <rect x="206" y="220" width="72" height="8" rx="4" fill="#14b8a6"/>
  <rect x="206" y="236" width="138" height="10" rx="5" fill="#d9e5f2"/>
  <rect x="206" y="252" width="110" height="10" rx="5" fill="#e2ecf5"/>
  <rect x="390" y="220" width="40" height="40" rx="12" fill="#ecfeff"/>
  <circle cx="410" cy="240" r="12" fill="none" stroke="url(#teal)" stroke-width="6"/>

  <rect x="206" y="324" width="88" height="8" rx="4" fill="#0f6cbd"/>
  <rect x="206" y="340" width="148" height="10" rx="5" fill="#d9e5f2"/>
  <rect x="206" y="356" width="100" height="10" rx="5" fill="#e2ecf5"/>
  <rect x="390" y="324" width="40" height="40" rx="12" fill="#eef6ff"/>
  <path d="M400 338h20v4h-20zM400 346h20v4h-20zM400 354h14v4h-14z" fill="#0f6cbd"/>
</svg>
